<?xml version="1.0" standalone="no"?>
<!DOCTYPE svg PUBLIC "-//W3C//DTD SVG 20010904//EN"
 "http://www.w3.org/TR/2001/REC-SVG-20010904/DTD/svg10.dtd">
<svg version="1.0" xmlns="http://www.w3.org/2000/svg"
 width="32.000000pt" height="32.000000pt" viewBox="0 0 32.000000 32.000000"
 preserveAspectRatio="xMidYMid meet">

<g transform="translate(0.000000,32.000000) scale(0.100000,-0.100000)"
fill="#000000" stroke="none">
<path d="M66 268 c-12 -16 -16 -47 -16 -113 0 -100 8 -120 53 -131 26 -6 27
-4 27 29 0 22 -6 37 -15 41 -20 7 -21 109 -1 125 8 7 32 11 53 9 l38 -3 3 -59
c2 -32 -2 -64 -7 -69 -6 -6 -11 -24 -11 -39 0 -23 4 -28 24 -28 13 0 28 6 33
12 27 34 24 206 -4 234 -10 9 -38 14 -88 14 -65 0 -76 -3 -89 -22z"/>
</g>
</svg>
